<svg width="46" height="54" viewBox="0 0 46 54" fill="none" xmlns="http://www.w3.org/2000/svg">
<path d="M43.4825 38.0079C41.2544 35.2566 32.6054 32.982 29.1634 32.1682C29.0323 31.8595 28.9112 31.5473 28.8001 31.2315L29.0035 30.7955C30.2784 31.6994 31.3915 32.3184 33.639 30.8197C36.1963 29.1427 38.1636 26.7065 39.2645 23.8535C40.4871 20.644 38.7976 18.1669 37.8056 14.9594C35.4409 7.30623 33.793 5.0752 32.3641 3.80517C30.3724 2.03236 28.9793 1.35423 27.1193 1.26898C25.374 0.39207 23.395 0.0931648 21.4686 0.415516C11.9109 1.56639 7.10205 16.1519 6.43167 21.3347C5.56173 28.054 8.87776 28.023 11.0739 30.6376C13.4396 33.4557 14.823 32.0229 16.218 32.269C12.8651 33.1951 4.96886 35.5957 2.87442 38.1861C0.51939 41.0953 0.0398589 51.4483 -0.00664114 52.6205C-0.0117231 52.874 0.0828034 53.1194 0.256645 53.304C0.430486 53.4886 0.669782 53.5977 0.923157 53.6079C1.17653 53.618 1.42378 53.5284 1.61183 53.3583C1.79987 53.1882 1.91372 52.9511 1.92892 52.698C2.05001 49.6929 2.72523 41.4489 4.37986 39.4048C5.5443 37.9652 9.9337 36.1827 14.512 34.7829L10.2195 41.7443C10.127 41.8946 10.0773 42.0672 10.0757 42.2437C10.0742 42.4201 10.1208 42.5936 10.2107 42.7454C10.3005 42.8973 10.4301 43.0217 10.5855 43.1053C10.7409 43.1889 10.9161 43.2285 11.0923 43.2197L14.3958 43.055L21.3591 53.2754C21.4513 53.4129 21.5776 53.5242 21.7257 53.5983C21.8737 53.6725 22.0385 53.7069 22.2039 53.6983C22.3692 53.6897 22.5295 53.6384 22.6691 53.5493C22.8087 53.4602 22.9228 53.3365 23.0002 53.1901C23.078 53.336 23.1923 53.4593 23.3318 53.548C23.4714 53.6368 23.6315 53.6879 23.7966 53.6965C23.9618 53.7051 24.1263 53.6708 24.2743 53.597C24.4223 53.5232 24.5487 53.4124 24.6413 53.2754L31.6056 43.055L34.9081 43.2197C35.0843 43.2285 35.2595 43.1889 35.4149 43.1053C35.5703 43.0217 35.6999 42.8973 35.7897 42.7454C35.8796 42.5936 35.9262 42.4201 35.9247 42.2437C35.9231 42.0672 35.8734 41.8946 35.7809 41.7443L31.47 34.7519C36.2382 36.049 40.7797 37.7511 41.9761 39.2275C43.4505 41.0468 44.0434 48.4355 44.0705 52.6641C44.0721 52.921 44.1756 53.1668 44.3584 53.3474C44.5411 53.528 44.7881 53.6286 45.0451 53.627C45.302 53.6255 45.5478 53.5219 45.7284 53.3392C45.909 53.1564 46.0096 52.9094 46.008 52.6525C46.0003 51.4628 45.8666 40.95 43.4825 38.0079ZM26.1748 40.9257H19.8256L17.8019 33.7715C17.9242 33.6728 18.0206 33.5458 18.0828 33.4015L18.0974 33.4082C18.4962 32.5497 18.8204 31.6584 19.0661 30.7442C20.1473 31.8041 21.5627 32.456 23.0709 32.5887C24.4293 32.4861 25.7057 31.8993 26.6679 30.935C26.906 31.7812 27.2115 32.6069 27.5814 33.4044L27.6056 33.3937C27.6586 33.5121 27.7353 33.6184 27.8309 33.7061C27.9265 33.7937 28.0391 33.8608 28.1617 33.9033L26.1748 40.9257ZM29.5664 16.2865C30.4323 16.3317 31.2812 16.5449 32.0658 16.9143C32.4387 17.2272 31.9679 19.8031 30.5216 20.9617L30.4228 21.0421C30.2305 21.1983 30.1053 21.4223 30.073 21.668C29.4403 24.4458 28.0179 26.9814 25.9772 28.9694C23.8721 30.8624 22.8452 31.3816 20.372 29.3153C18.0795 27.4 16.6025 24.6836 16.2412 21.7183C16.2206 21.5858 16.1727 21.4589 16.1005 21.3459C16.0283 21.2328 15.9333 21.136 15.8218 21.0615C15.3486 20.7066 14.9592 20.2521 14.681 19.7302C14.4028 19.2083 14.2426 18.6316 14.2117 18.041C15.596 17.5576 16.8578 16.7773 17.9087 15.7548C18.9597 14.7323 19.7743 13.4924 20.2955 12.1219C22.834 14.5066 26.0976 15.9721 29.5664 16.2865ZM12.558 29.3908C9.95889 26.2976 7.62905 27.1627 8.35367 21.5827C9.03567 16.3108 13.8445 3.28495 21.7001 2.33848C24.3448 2.0217 24.8118 2.49058 26.7434 3.19583C28.0241 3.2307 28.9822 3.38958 31.0767 5.25248C31.8381 5.93061 33.4239 7.34014 35.9553 15.5309C36.9337 18.7104 38.3733 20.7525 37.4539 23.1637C36.4968 25.6406 34.7867 27.7548 32.5647 29.2087C30.2697 30.7393 30.6708 28.6488 28.7817 28.7863C30.2608 26.872 31.3278 24.6724 31.9156 22.3257C33.7398 20.8203 34.9991 16.8494 33.3125 15.4311C32.2698 14.7804 31.0747 14.4143 29.8464 14.3694C26.3112 14.0606 23.0279 12.4115 20.6694 9.76008C20.5369 9.61514 20.3671 9.50949 20.1786 9.45473C19.99 9.39998 19.7901 9.39823 19.6006 9.44967C19.4111 9.50112 19.2395 9.60378 19.1045 9.74638C18.9696 9.88897 18.8765 10.066 18.8355 10.258C18.5221 11.7174 17.8109 13.0616 16.7808 14.1419C15.7507 15.2221 14.4417 15.9962 12.9988 16.3786C11.4382 16.7661 12.3759 20.7593 14.3938 22.411C14.8018 24.8891 15.858 27.2152 17.4551 29.1535C17.3651 29.607 17.2549 30.0563 17.1247 30.5C14.512 29.663 14.3745 31.5773 12.558 29.3908ZM15.69 41.5157C15.6012 41.3853 15.4819 41.2786 15.3424 41.2048C15.203 41.131 15.0476 41.0924 14.8898 41.0924L14.8414 41.0943L12.8351 41.1931L16.2994 35.5763L19.6047 47.2614L15.69 41.5157ZM23.0002 52.1448L20.3749 42.8632H25.6255L23.0002 52.1448ZM31.159 41.0943C30.993 41.0841 30.8273 41.1176 30.6784 41.1916C30.5294 41.2655 30.4025 41.3773 30.3104 41.5157L26.3957 47.2614L29.701 35.5763L33.1653 41.1931L31.159 41.0943Z" fill="black"/>
</svg>
