<svg width="51" height="55" viewBox="0 0 51 55" fill="none" xmlns="http://www.w3.org/2000/svg">
<mask id="path-1-inside-1_2024_8748" fill="white">
<path d="M36.4078 6.51244C37.5844 9.6841 37.6966 13.1526 36.7274 16.3937C36.6604 16.6179 36.5342 16.82 36.3621 16.9786C36.19 17.1373 35.9784 17.2466 35.7494 17.2952C35.5204 17.3437 35.2826 17.3297 35.061 17.2546C34.8393 17.1795 34.6419 17.0461 34.4896 16.8684C33.6383 15.8909 32.9689 14.7688 32.5134 13.5553C32.1798 12.6877 31.9679 11.7781 31.8837 10.8524C27.4606 11.9993 22.8202 12.016 18.389 10.9009C18.2878 11.7879 18.0594 12.6558 17.7109 13.4778C17.195 14.698 16.452 15.8091 15.5215 16.7521H15.5118C15.3533 16.9131 15.1556 17.03 14.9381 17.0912C14.7206 17.1523 14.491 17.1557 14.2718 17.1009C14.0526 17.0461 13.8516 16.9351 13.6885 16.7787C13.5254 16.6224 13.4059 16.4263 13.3418 16.2096C12.6496 13.9138 12.6194 11.4693 13.2546 9.15713C13.6558 7.4494 14.4256 5.85005 15.5099 4.47114C16.5943 3.09223 17.9671 1.96711 19.5321 1.17463C23.3664 -0.391542 27.6619 -0.391542 31.4962 1.17463C32.9932 1.9865 34.7159 2.28269 36.3981 2.01744C36.5969 1.99276 36.7988 2.01445 36.9879 2.08082C37.177 2.1472 37.3481 2.25644 37.4879 2.4C37.6277 2.54357 37.7324 2.71755 37.7938 2.90832C37.8551 3.0991 37.8714 3.30148 37.8415 3.49963C37.6508 4.61696 37.1545 5.65971 36.4078 6.51244Z"/>
<path d="M19.8712 13.197C23.3377 13.8238 26.889 13.8172 30.3531 13.1776C31.1669 16.268 34.0169 21.0342 37.3281 18.6705C37.0033 19.9478 36.2426 21.0716 35.1775 21.848C34.8685 23.4155 34.2202 24.8964 33.278 26.1867C32.3358 27.4771 31.1225 28.5455 29.7234 29.317C28.393 30.0428 26.9124 30.4503 25.3979 30.5075C23.8835 30.5646 22.3764 30.2699 20.995 29.6464C19.6054 28.8041 18.4007 27.6892 17.4533 26.369C16.506 25.0487 15.8357 23.5504 15.4828 21.9642C14.3299 21.2279 13.5043 20.0763 13.1772 18.748C16.3905 20.8308 18.7087 16.3493 19.8712 13.197Z"/>
<path d="M31.7868 33.0565C31.6473 32.9964 31.4955 32.9704 31.3439 32.9805C31.1923 32.9906 31.0453 33.0366 30.915 33.1146C30.8258 33.1669 25.2546 36.452 25.1897 36.5343C25.1247 36.452 19.5535 33.1669 19.4643 33.1146C19.3519 33.0472 19.2267 33.0037 19.0967 32.9871C18.9666 32.9704 18.8345 32.9808 18.7087 33.0177C18.7378 32.2137 18.7862 31.4193 18.8443 30.6055C20.7535 31.8401 22.9848 32.4831 25.2581 32.4538C27.5315 32.4245 29.7455 31.7242 31.6222 30.4409C31.69 31.3127 31.7384 32.1943 31.7868 33.0565ZM22.4868 42.153C22.2673 41.8213 22.1158 41.4492 22.0412 41.0584V40.2349L18.6312 42.6568C18.4786 42.7645 18.298 42.8257 18.1113 42.8331C17.9247 42.8406 17.7398 42.7939 17.5791 42.6986C17.4184 42.6034 17.2886 42.4638 17.2054 42.2965C17.1222 42.1292 17.0892 41.9415 17.1103 41.7559L18.0112 33.8412C18.0279 33.6737 18.088 33.5134 18.1856 33.3762C15.4634 34.1609 5.6209 37.1252 3.18934 40.0315C0.90309 42.7537 0.0893401 52.3637 0.00215256 53.4487C-0.00668239 53.5818 0.0117403 53.7154 0.0562938 53.8412C0.100847 53.967 0.170595 54.0824 0.261272 54.1804C0.351949 54.2783 0.46165 54.3567 0.583665 54.4108C0.70568 54.4649 0.837445 54.4935 0.970903 54.4949H20.8303C20.7334 51.453 22.1575 43.8484 22.4868 42.153ZM19.7647 35.5462C19.3432 39.2439 19.4421 38.374 19.2803 39.8184C20.9029 38.6626 22.3192 37.6619 22.7872 37.3287C21.9802 36.8472 22.5711 37.196 19.7647 35.5462ZM25.9259 42.2015C25.9394 41.7051 26.1051 41.2249 26.4006 40.8259V38.8593L25.9647 38.5493H24.4147L23.9787 38.8593V40.8259C24.2742 41.2249 24.4399 41.7051 24.4534 42.2015C24.434 42.2887 22.6515 51.3465 22.7678 54.4562V54.4949H27.6115V54.4562C27.7278 51.3465 25.9453 42.2887 25.9259 42.2015ZM30.6147 35.5462C27.8082 37.196 28.3991 36.8472 27.5922 37.3287C28.0988 37.689 29.4948 38.6762 31.099 39.8184C30.9372 38.373 31.0361 39.2439 30.6147 35.5462ZM47.4709 40.3027C44.9812 37.2609 34.664 34.0834 32.1646 33.3471C32.2809 33.4874 32.3518 33.6597 32.3681 33.8412L33.269 41.7559C33.2901 41.9415 33.2571 42.1292 33.1739 42.2965C33.0907 42.4638 32.9609 42.6034 32.8002 42.6986C32.6395 42.7939 32.4546 42.8406 32.268 42.8331C32.0813 42.8257 31.9007 42.7645 31.7481 42.6568L28.3381 40.2349V41.0584C28.2635 41.4492 28.1121 41.8213 27.8925 42.153C28.2218 43.8484 29.6459 51.453 29.549 54.4949H49.4084C49.5405 54.4946 49.6711 54.4674 49.7924 54.4149C49.9136 54.3624 50.0229 54.2858 50.1135 54.1897C50.2042 54.0936 50.2743 53.9801 50.3196 53.856C50.3649 53.7319 50.3845 53.5999 50.3772 53.468C50.3093 52.4024 49.67 42.9959 47.4709 40.3027ZM43.1115 53.4099H34.3928C34.1358 53.4099 33.8894 53.3079 33.7078 53.1262C33.5261 52.9445 33.424 52.6981 33.424 52.4412C33.424 52.1842 33.5261 51.9378 33.7078 51.7562C33.8894 51.5745 34.1358 51.4724 34.3928 51.4724H43.1115C43.3685 51.4724 43.6149 51.5745 43.7965 51.7562C43.9782 51.9378 44.0803 52.1842 44.0803 52.4412C44.0803 52.6981 43.9782 52.9445 43.7965 53.1262C43.6149 53.3079 43.3685 53.4099 43.1115 53.4099Z"/>
</mask>
<path d="M36.4078 6.51244C37.5844 9.6841 37.6966 13.1526 36.7274 16.3937C36.6604 16.6179 36.5342 16.82 36.3621 16.9786C36.19 17.1373 35.9784 17.2466 35.7494 17.2952C35.5204 17.3437 35.2826 17.3297 35.061 17.2546C34.8393 17.1795 34.6419 17.0461 34.4896 16.8684C33.6383 15.8909 32.9689 14.7688 32.5134 13.5553C32.1798 12.6877 31.9679 11.7781 31.8837 10.8524C27.4606 11.9993 22.8202 12.016 18.389 10.9009C18.2878 11.7879 18.0594 12.6558 17.7109 13.4778C17.195 14.698 16.452 15.8091 15.5215 16.7521H15.5118C15.3533 16.9131 15.1556 17.03 14.9381 17.0912C14.7206 17.1523 14.491 17.1557 14.2718 17.1009C14.0526 17.0461 13.8516 16.9351 13.6885 16.7787C13.5254 16.6224 13.4059 16.4263 13.3418 16.2096C12.6496 13.9138 12.6194 11.4693 13.2546 9.15713C13.6558 7.4494 14.4256 5.85005 15.5099 4.47114C16.5943 3.09223 17.9671 1.96711 19.5321 1.17463C23.3664 -0.391542 27.6619 -0.391542 31.4962 1.17463C32.9932 1.9865 34.7159 2.28269 36.3981 2.01744C36.5969 1.99276 36.7988 2.01445 36.9879 2.08082C37.177 2.1472 37.3481 2.25644 37.4879 2.4C37.6277 2.54357 37.7324 2.71755 37.7938 2.90832C37.8551 3.0991 37.8714 3.30148 37.8415 3.49963C37.6508 4.61696 37.1545 5.65971 36.4078 6.51244Z" stroke="black" stroke-width="4" mask="url(#path-1-inside-1_2024_8748)"/>
<path d="M19.8712 13.197C23.3377 13.8238 26.889 13.8172 30.3531 13.1776C31.1669 16.268 34.0169 21.0342 37.3281 18.6705C37.0033 19.9478 36.2426 21.0716 35.1775 21.848C34.8685 23.4155 34.2202 24.8964 33.278 26.1867C32.3358 27.4771 31.1225 28.5455 29.7234 29.317C28.393 30.0428 26.9124 30.4503 25.3979 30.5075C23.8835 30.5646 22.3764 30.2699 20.995 29.6464C19.6054 28.8041 18.4007 27.6892 17.4533 26.369C16.506 25.0487 15.8357 23.5504 15.4828 21.9642C14.3299 21.2279 13.5043 20.0763 13.1772 18.748C16.3905 20.8308 18.7087 16.3493 19.8712 13.197Z" stroke="black" stroke-width="4" mask="url(#path-1-inside-1_2024_8748)"/>
<path d="M31.7868 33.0565C31.6473 32.9964 31.4955 32.9704 31.3439 32.9805C31.1923 32.9906 31.0453 33.0366 30.915 33.1146C30.8258 33.1669 25.2546 36.452 25.1897 36.5343C25.1247 36.452 19.5535 33.1669 19.4643 33.1146C19.3519 33.0472 19.2267 33.0037 19.0967 32.9871C18.9666 32.9704 18.8345 32.9808 18.7087 33.0177C18.7378 32.2137 18.7862 31.4193 18.8443 30.6055C20.7535 31.8401 22.9848 32.4831 25.2581 32.4538C27.5315 32.4245 29.7455 31.7242 31.6222 30.4409C31.69 31.3127 31.7384 32.1943 31.7868 33.0565ZM22.4868 42.153C22.2673 41.8213 22.1158 41.4492 22.0412 41.0584V40.2349L18.6312 42.6568C18.4786 42.7645 18.298 42.8257 18.1113 42.8331C17.9247 42.8406 17.7398 42.7939 17.5791 42.6986C17.4184 42.6034 17.2886 42.4638 17.2054 42.2965C17.1222 42.1292 17.0892 41.9415 17.1103 41.7559L18.0112 33.8412C18.0279 33.6737 18.088 33.5134 18.1856 33.3762C15.4634 34.1609 5.6209 37.1252 3.18934 40.0315C0.90309 42.7537 0.0893401 52.3637 0.00215256 53.4487C-0.00668239 53.5818 0.0117403 53.7154 0.0562938 53.8412C0.100847 53.967 0.170595 54.0824 0.261272 54.1804C0.351949 54.2783 0.46165 54.3567 0.583665 54.4108C0.70568 54.4649 0.837445 54.4935 0.970903 54.4949H20.8303C20.7334 51.453 22.1575 43.8484 22.4868 42.153ZM19.7647 35.5462C19.3432 39.2439 19.4421 38.374 19.2803 39.8184C20.9029 38.6626 22.3192 37.6619 22.7872 37.3287C21.9802 36.8472 22.5711 37.196 19.7647 35.5462ZM25.9259 42.2015C25.9394 41.7051 26.1051 41.2249 26.4006 40.8259V38.8593L25.9647 38.5493H24.4147L23.9787 38.8593V40.8259C24.2742 41.2249 24.4399 41.7051 24.4534 42.2015C24.434 42.2887 22.6515 51.3465 22.7678 54.4562V54.4949H27.6115V54.4562C27.7278 51.3465 25.9453 42.2887 25.9259 42.2015ZM30.6147 35.5462C27.8082 37.196 28.3991 36.8472 27.5922 37.3287C28.0988 37.689 29.4948 38.6762 31.099 39.8184C30.9372 38.373 31.0361 39.2439 30.6147 35.5462ZM47.4709 40.3027C44.9812 37.2609 34.664 34.0834 32.1646 33.3471C32.2809 33.4874 32.3518 33.6597 32.3681 33.8412L33.269 41.7559C33.2901 41.9415 33.2571 42.1292 33.1739 42.2965C33.0907 42.4638 32.9609 42.6034 32.8002 42.6986C32.6395 42.7939 32.4546 42.8406 32.268 42.8331C32.0813 42.8257 31.9007 42.7645 31.7481 42.6568L28.3381 40.2349V41.0584C28.2635 41.4492 28.1121 41.8213 27.8925 42.153C28.2218 43.8484 29.6459 51.453 29.549 54.4949H49.4084C49.5405 54.4946 49.6711 54.4674 49.7924 54.4149C49.9136 54.3624 50.0229 54.2858 50.1135 54.1897C50.2042 54.0936 50.2743 53.9801 50.3196 53.856C50.3649 53.7319 50.3845 53.5999 50.3772 53.468C50.3093 52.4024 49.67 42.9959 47.4709 40.3027ZM43.1115 53.4099H34.3928C34.1358 53.4099 33.8894 53.3079 33.7078 53.1262C33.5261 52.9445 33.424 52.6981 33.424 52.4412C33.424 52.1842 33.5261 51.9378 33.7078 51.7562C33.8894 51.5745 34.1358 51.4724 34.3928 51.4724H43.1115C43.3685 51.4724 43.6149 51.5745 43.7965 51.7562C43.9782 51.9378 44.0803 52.1842 44.0803 52.4412C44.0803 52.6981 43.9782 52.9445 43.7965 53.1262C43.6149 53.3079 43.3685 53.4099 43.1115 53.4099Z" stroke="black" stroke-width="4" mask="url(#path-1-inside-1_2024_8748)"/>
</svg>
