<svg width="62" height="62" viewBox="0 0 62 62" fill="none" xmlns="http://www.w3.org/2000/svg">
<g filter="url(#filter0_b_716_7548)">
<rect width="62" height="62" rx="31" fill="black" fill-opacity="0.2"/>
<path fill-rule="evenodd" clip-rule="evenodd" d="M30.9595 17.1145H31.0406H31.0406C31.8209 17.1145 32.4668 17.1145 33.0002 17.1599C33.5591 17.2075 34.0642 17.3091 34.5514 17.5503C35.4193 17.98 35.968 18.6629 36.3531 19.3478C36.6517 19.8787 36.8836 20.4752 37.08 20.9807C37.1264 21.1 37.1708 21.2142 37.2136 21.3213L37.4027 21.794L37.4027 21.794L37.4027 21.794C37.497 22.0298 37.5442 22.1476 37.6424 22.2142C37.7406 22.2809 37.8679 22.2811 38.1224 22.2814C39.2649 22.2832 40.124 22.2963 40.8066 22.3903C41.689 22.5119 42.3272 22.7732 42.9904 23.2821C43.3262 23.5398 43.6268 23.8404 43.8845 24.1762C44.4359 24.8948 44.6694 25.7324 44.7793 26.7067C44.8855 27.649 44.8855 28.8304 44.8855 30.2957V36.2375C44.8855 38.0039 44.8855 39.4278 44.7349 40.5476C44.5786 41.7102 44.2442 42.6892 43.4668 43.4666C42.6893 44.2441 41.7104 44.5785 40.5477 44.7348C39.4279 44.8854 38.0041 44.8854 36.2376 44.8853H36.2376H25.7625H25.7625C23.996 44.8854 22.5722 44.8854 21.4524 44.7348C20.2897 44.5785 19.3108 44.2441 18.5333 43.4666C17.7559 42.6892 17.4214 41.7102 17.2651 40.5476C17.1146 39.4278 17.1146 38.0039 17.1146 36.2375V36.2375V30.2957V30.2957C17.1146 28.8304 17.1146 27.6489 17.2208 26.7067C17.3307 25.7324 17.5642 24.8948 18.1156 24.1762C18.3733 23.8404 18.6739 23.5398 19.0097 23.2821C19.6729 22.7732 20.3111 22.5119 21.1935 22.3903C21.876 22.2963 22.7351 22.2832 23.8777 22.2814C24.1322 22.2811 24.2595 22.2809 24.3577 22.2142C24.4559 22.1476 24.5031 22.0298 24.5974 21.794L24.7864 21.3213C24.8293 21.2142 24.8737 21.1 24.92 20.9807C25.1165 20.4752 25.3484 19.8787 25.647 19.3478C26.0321 18.6629 26.5808 17.98 27.4487 17.5503C27.9359 17.3091 28.441 17.2075 28.9999 17.1599C29.5333 17.1145 30.1792 17.1145 30.9594 17.1145H30.9595ZM25.8333 33.5833C25.8333 30.7299 28.1465 28.4167 31 28.4167C33.8535 28.4167 36.1667 30.7299 36.1667 33.5833C36.1667 36.4368 33.8535 38.75 31 38.75C28.1465 38.75 25.8333 36.4368 25.8333 33.5833ZM30.9942 21.9583C30.284 21.9583 29.7083 22.5366 29.7083 23.25C29.7083 23.9607 30.2982 24.5417 31.0058 24.5417C31.716 24.5417 32.2917 23.9634 32.2917 23.25C32.2917 22.5393 31.7018 21.9583 30.9942 21.9583Z" fill="white"/>
</g>
<defs>
<filter id="filter0_b_716_7548" x="-12.4" y="-12.4" width="86.8" height="86.8" filterUnits="userSpaceOnUse" color-interpolation-filters="sRGB">
<feFlood flood-opacity="0" result="BackgroundImageFix"/>
<feGaussianBlur in="BackgroundImageFix" stdDeviation="6.2"/>
<feComposite in2="SourceAlpha" operator="in" result="effect1_backgroundBlur_716_7548"/>
<feBlend mode="normal" in="SourceGraphic" in2="effect1_backgroundBlur_716_7548" result="shape"/>
</filter>
</defs>
</svg>
